<svg width="200" height="48" viewBox="0 0 200 48" fill="black" xmlns="http://www.w3.org/2000/svg">
<path d="M21.3144 39.4026L33.1216 15.5943C33.3004 15.1937 33.6506 14.4858 33.6506 14.4858H34.8472L35.0235 15.3726C35.288 16.8312 38.3387 39.977 38.3387 39.977C39.0466 45.2772 40.1071 46.6476 41.6564 46.7358L43.2913 46.8693V47.4411L36.7894 47.3102L30.2901 47.4411V46.9146L32.0157 46.7358C33.3861 46.5595 33.4289 45.3654 32.6354 38.342L31.1315 25.5322L20.4755 47.0456H19.546L8.93285 25.6154C8.75651 26.8573 7.03342 42.7153 7.03342 42.7153C6.67822 45.8516 7.73878 46.6476 9.15201 46.7358L10.9633 46.8693V47.4411L5.08361 47.3102L0 47.4411V46.9146L1.41575 46.7786C3.00533 46.6023 3.62503 45.2772 4.33291 39.977C4.33291 39.977 7.3861 16.8312 7.65061 15.3726L7.7816 14.4858H8.98071C8.98071 14.4858 9.33339 15.1962 9.55255 15.5943L21.3623 39.4026H21.3144Z" />
<path d="M55.5824 23.6731C51.7432 23.6731 47.1735 25.6128 47.1735 33.8C47.1735 40.6697 50.796 45.9044 57.177 45.9044C59.5072 45.9044 65.1148 44.9849 65.1148 35.4702C65.1148 28.074 61.059 23.6731 55.5824 23.6731ZM56.0106 47.8013C46.4379 47.8013 42.6416 40.6697 42.6416 34.8102C42.6416 29.1749 46.3498 21.9097 56.3155 21.9097C64.5933 21.9097 69.7701 26.6683 69.7701 34.2383C69.7701 41.8133 64.4674 47.8013 56.0106 47.8013Z" />
<path d="M149.16 23.6731C145.324 23.6731 140.754 25.6128 140.754 33.8C140.754 40.6697 144.371 45.9044 150.757 45.9044C153.085 45.9044 158.693 44.9849 158.693 35.4702C158.693 28.074 154.639 23.6731 149.16 23.6731ZM149.591 47.8013C140.018 47.8013 136.225 40.6697 136.225 34.8102C136.225 29.1749 139.933 21.9097 149.896 21.9097C158.176 21.9097 163.351 26.6683 163.351 34.2383C163.348 41.8133 158.045 47.8013 149.591 47.8013Z" />
<path d="M136.437 27.1515H135.832V26.6199C135.747 26.0909 135.613 25.8289 135.402 25.3856C134.837 24.2847 131.608 24.1537 129.106 24.1537H127.683V34.85C127.683 45.4605 127.683 46.5186 129.62 46.6949L131.389 46.8259V47.3952L125.658 47.2642L119.879 47.3952V46.8763L121.645 46.7025C123.584 46.5261 123.584 45.4681 123.584 34.8575V24.1588H118.927C117.851 24.1588 116.513 24.4233 116.211 24.6399C115.435 25.1261 115.135 25.436 114.745 26.4486C114.659 26.625 114.571 26.9323 114.571 26.9323L114.012 26.7585L114.921 21.957H115.435C116.644 22.2644 116.73 22.4407 119.66 22.4407H123.413H127.638H133.16C134.366 22.4407 135.099 22.3551 136.223 22.0452L136.608 22.4407L136.437 27.1515Z" />
<path d="M107.237 47.2713L101.456 47.4023V46.8758L103.227 46.702C105.164 46.5257 105.164 45.4676 105.164 34.857C105.164 24.2465 105.164 23.1884 103.227 23.0121L101.456 22.8811V22.3042L107.195 22.4402L112.976 22.3067V22.8383L111.208 23.0146C109.268 23.1909 109.268 24.249 109.268 34.8596C109.268 45.4702 109.268 46.5282 111.208 46.7045L112.976 46.8355V47.4074L107.237 47.2713Z" />
<path d="M173.698 23.8864C172.876 23.8864 172.317 23.9293 171.972 24.0174C171.627 24.1535 171.627 29.1691 171.627 34.5852C171.627 34.9354 171.712 35.0714 171.927 35.1596C172.617 35.4216 173.609 35.5123 174.471 35.5123C175.809 35.5123 176.237 35.3787 176.801 34.9354C177.791 34.23 179 32.6933 179 29.9626C179 25.2518 175.637 23.8864 173.698 23.8864ZM189.437 47.264L186.805 47.3522C184.951 47.4403 184.086 47.2237 183.227 46.7778C181.804 45.9868 180.552 44.4451 178.701 41.8479C177.363 40.0442 175.809 37.7996 175.378 37.3134C175.249 37.0917 174.819 37.0464 174.819 37.0464H172.1C171.801 37.0464 171.758 37.0464 171.758 37.4872C171.801 37.9281 171.801 38.238 171.801 38.238C171.801 45.9415 172.012 46.604 173.652 46.6896L175.421 46.8206V47.39L169.642 47.2615L163.908 47.39V46.8206L165.677 46.6896C167.574 46.5133 167.616 45.4553 167.616 34.8447C167.616 24.2341 167.574 23.1786 165.677 23.0022L163.908 22.8259V22.2969L169.642 22.4304C170.763 22.4304 173.526 22.3422 174.562 22.3422C176.627 22.3422 179.393 22.516 181.159 23.7076C182.109 24.3676 183.442 26.0403 183.442 28.2874C183.442 30.7511 181.89 32.9956 178.524 35.7264C181.502 39.427 183.787 42.3769 185.726 44.4451C187.581 46.3848 188.961 46.604 189.477 46.6922C189.82 46.7778 190.772 46.6922 190.772 46.6922V47.264H189.437V47.264Z" />
<path fill-rule="evenodd" clip-rule="evenodd" d="M191.92 42.6269C191.92 40.4021 193.735 38.5869 195.96 38.5869C198.185 38.5869 200 40.4021 200 42.6269C200 44.8517 198.185 46.6668 195.96 46.6668C193.735 46.6668 191.92 44.8517 191.92 42.6269ZM195.96 38.8479C193.879 38.8479 192.181 40.5462 192.181 42.6269C192.181 44.7076 193.879 46.4059 195.96 46.4059C198.041 46.4059 199.739 44.7076 199.739 42.6269C199.739 40.5462 198.041 38.8479 195.96 38.8479Z" />
<path d="M195.219 42.4751H195.839C196.539 42.4751 196.956 42.1603 196.956 41.6831C196.956 41.1652 196.539 40.9113 195.859 40.9113C195.524 40.9113 195.321 40.9316 195.219 40.9519V42.4751ZM194.194 40.3427C194.59 40.2716 195.158 40.231 195.758 40.231C196.58 40.231 197.128 40.3427 197.504 40.627C197.819 40.8504 197.992 41.1855 197.992 41.6018C197.992 42.2314 197.494 42.6579 196.946 42.8102V42.8305C197.362 42.9625 197.606 43.3078 197.748 43.7647C197.941 44.374 198.083 44.9325 198.195 45.1254H197.149C197.057 44.9833 196.905 44.5872 196.753 43.978C196.59 43.3484 196.326 43.1453 195.737 43.125H195.209V45.1153H194.184V40.3427H194.194Z" />
<path d="M97.8661 23.0125C96.2715 23.1435 96.0549 24.5996 96.0146 31.4668L95.8836 47.5363H94.6769L76.388 30.3206C76.388 32.8296 76.65 38.2483 76.65 38.2483C76.9094 45.0726 76.9498 46.5715 78.5015 46.7025L80.2675 46.8335V47.4053L75.3954 47.2743L70.5234 47.4053V46.8335L72.2919 46.7025C73.8437 46.5715 74.0603 45.1154 74.1056 38.2483L74.2316 22.1787H75.4836L93.7221 41.0647C93.6365 37.3237 93.4627 31.4693 93.4627 31.4693C93.2914 24.6021 93.2057 23.1461 91.6514 23.0151L89.8427 22.8841V22.3072L94.7172 22.4407L99.632 22.3072V22.8841L97.8661 23.0125Z" />
<path d="M17.2583 4.32321C18.0064 4.32321 18.1324 4.29802 18.1803 4.15947L18.2307 4.00832L19.4323 3.62793C19.4827 3.65312 19.5079 3.70602 19.533 3.73121C19.3063 4.35848 19.0065 5.14193 18.7672 5.83469L17.4296 9.6411L17.4573 9.66126C18.0946 8.87025 18.606 8.41428 18.9914 8.1271C19.4701 7.76183 19.9437 7.49732 20.3669 7.49732C20.9412 7.49732 21.2435 7.92305 21.2435 8.46719C21.2435 9.42446 20.6541 10.7344 20.1427 11.5153C19.7673 12.0947 19.0065 12.8127 18.3188 12.8127C17.9158 12.8127 17.7193 12.586 17.7193 12.3618C17.7193 12.1199 17.9334 11.8831 18.1198 11.8831C18.1954 11.8831 18.2684 11.9335 18.3465 12.0091C18.4725 12.135 18.5833 12.2106 18.6589 12.2106C18.7697 12.2106 18.8604 12.0343 18.9939 11.7194C19.3693 10.8377 19.9462 9.17506 19.9462 8.52009C19.9462 8.29337 19.8706 8.18 19.7195 8.18C19.5935 8.18 19.3945 8.26817 19.1577 8.44451C18.7849 8.72162 18.407 9.12468 17.8704 9.84263C17.2331 10.6739 16.5579 12.1754 16.296 12.6137C16.2103 12.7673 16.0718 12.8152 15.8727 12.8152C15.6485 12.8152 15.2228 12.7396 15.3488 12.3895L17.548 5.91278C17.8351 5.06887 17.7974 4.81696 16.6083 4.81696H15.4848C15.1724 4.81696 15.1724 4.84215 15.0213 5.26789L13.147 10.8251C12.7717 11.9209 12.7591 12.2005 13.4216 12.261L13.9481 12.3089C14.0086 12.4121 13.9708 12.6137 13.8725 12.6767C13.1722 12.654 12.6483 12.6389 12.0462 12.6389C11.4466 12.6389 10.7614 12.654 10.1997 12.6767C10.0964 12.5986 10.0964 12.3618 10.2248 12.3089L10.7236 12.2484C11.2375 12.1854 11.3484 12.0444 11.7615 10.8377L13.6735 5.283C13.8222 4.84215 13.7743 4.81696 13.3234 4.81696H12.5198C12.0814 4.81696 11.7313 4.86734 11.4441 5.03109C11.0965 5.22002 10.8446 5.52232 10.4818 6.03874C10.3558 6.11431 10.1316 6.03874 10.1064 5.9153C10.4818 5.24773 10.8446 4.50459 11.0436 4.02595C11.0939 3.95038 11.2451 3.95038 11.3433 4.00076C11.3181 4.25267 11.4693 4.32825 12.2805 4.32825H17.2583V4.32321Z" />
<path d="M24.0791 8.45686C23.6156 8.94557 23.3184 9.61314 23.1798 10.0691C23.8172 9.84238 24.2051 9.63078 24.6031 9.2126C24.9155 8.90023 25.0666 8.47197 25.0666 8.27044C25.0666 8.1067 24.9911 7.95555 24.8298 7.95555C24.6535 7.95051 24.3915 8.10166 24.0791 8.45686ZM21.6406 11.4395C21.6406 10.4974 22.2276 9.08664 23.4141 8.17724C24.1018 7.66081 24.6913 7.49707 25.1649 7.49707C25.7644 7.49707 26.165 7.94799 26.165 8.36365C26.165 9.49726 24.4671 10.1145 23.0765 10.4948C23.0161 10.6712 22.9657 10.9609 22.9657 11.3136C22.9657 11.7796 23.1647 12.029 23.5149 12.029C23.9633 12.029 24.4167 11.767 24.9911 11.238C25.117 11.238 25.2153 11.3639 25.1901 11.4899C24.5175 12.4346 23.6408 12.8124 22.8196 12.8124C21.9908 12.815 21.6406 12.1348 21.6406 11.4395Z" />
<path d="M182.255 15.5479L177.605 15.4269L175.244 15.4874V15.2481L175.967 15.1675C176.758 15.0919 176.758 14.6107 176.758 9.82439C176.758 5.03804 176.758 4.56192 175.967 4.48131L175.244 4.42337V4.16642L177.605 4.22436H179.894L182.008 4.10596L182.237 4.2042L182.131 5.17659L182.063 6.3102H181.832C181.832 6.3102 181.832 6.18928 181.817 6.10867C181.728 5.51415 181.358 5.01788 180.829 5.01788H178.61C178.522 5.51667 178.504 6.50669 178.469 8.29528L178.451 9.03086H180.794C181.164 9.03086 181.429 8.99056 181.711 8.71345C181.766 8.65551 181.834 8.57238 181.834 8.57238L182.066 8.63284L181.922 9.9831L181.852 11.1142H181.625C181.625 11.1142 181.625 10.9958 181.607 10.9152C181.537 10.3181 181.484 9.82187 180.62 9.82187H178.433V11.356C178.433 12.865 178.433 13.782 178.857 14.2555C179.156 14.5956 180.053 14.7115 180.99 14.7115C181.693 14.7115 181.978 14.515 182.099 14.2379C182.24 13.8399 182.363 13.2051 182.363 13.2051L182.628 13.2429L182.255 15.5479Z" />
<path d="M173.767 15.1324C173.767 15.1324 172.377 15.6689 170.21 15.6689C167.057 15.6689 164.449 13.5252 164.449 9.82959C164.449 6.13654 167.057 3.99023 170.193 3.99023C172.286 3.99023 173.767 4.52681 173.767 4.52681V7.64298H173.503C173.221 5.93501 172.183 4.82407 170.226 4.82407C167.759 4.82407 166.228 7.18953 166.228 9.82707C166.228 12.4696 167.744 14.8326 170.21 14.8326C172.183 14.8326 173.221 13.7216 173.488 12.0112H173.755V15.1298H173.767V15.1324Z" />
<path d="M150.923 15.5479L146.257 15.4269L143.912 15.4874V15.2481L144.635 15.1675C145.411 15.0919 145.429 14.6107 145.429 9.82439C145.429 5.03804 145.411 4.56192 144.635 4.48131L143.912 4.42337V4.16642L146.257 4.22436H148.565L150.661 4.10596L150.908 4.2042L150.804 5.17659L150.734 6.3102H150.487C150.487 6.3102 150.487 6.18928 150.469 6.10867C150.399 5.51415 150.029 5.01788 149.482 5.01788H147.28C147.174 5.51667 147.174 6.50669 147.139 8.29528L147.121 9.03086H149.444C149.814 9.03086 150.081 8.99056 150.361 8.71345C150.417 8.65551 150.485 8.57238 150.485 8.57238L150.716 8.63284L150.59 9.9831L150.52 11.1142H150.273V10.9152C150.185 10.3181 150.132 9.82187 149.268 9.82187H147.101V11.356C147.101 12.865 147.101 13.782 147.507 14.2555C147.807 14.5956 148.706 14.7115 149.638 14.7115C150.359 14.7115 150.643 14.515 150.749 14.2379C150.905 13.8399 151.011 13.2051 151.011 13.2051L151.276 13.2429L150.923 15.5479Z" />
<path d="M140.272 15.4275L137.929 15.488V15.2487L138.649 15.168C139.428 15.09 139.443 14.6113 139.443 9.82497C139.443 5.03861 139.425 4.5625 138.649 4.48188L137.929 4.42394V4.16699L140.272 4.22493L142.632 4.16699V4.40379L141.911 4.48188C141.118 4.5625 141.118 5.03861 141.118 9.82497C141.118 14.6113 141.118 15.09 141.911 15.168L142.632 15.226V15.4855L140.272 15.4275Z" />
<path d="M133.141 15.6689C129.99 15.6689 127.397 13.5252 127.397 9.82959C127.397 6.13654 129.987 3.99023 133.141 3.99023C135.237 3.99023 136.698 4.52933 136.698 4.52933V7.6455H136.434C136.172 5.93752 135.131 4.82659 133.156 4.82659C130.69 4.82659 129.173 7.19205 129.173 9.82959C129.173 12.4722 130.69 14.8351 133.156 14.8351C135.114 14.8351 136.151 13.7242 136.434 12.0162H136.698V15.1349C136.698 15.1324 135.31 15.6689 133.141 15.6689Z" />
<path d="M163.209 4.48424C162.574 4.5447 162.489 5.20219 162.469 8.29821L162.416 15.5483H161.907L154.455 7.78178C154.455 8.91288 154.561 11.3564 154.561 11.3564C154.647 14.4348 154.667 15.1125 155.299 15.1704L156.04 15.2283V15.4878L154.032 15.4274L152.042 15.4878V15.2283L152.765 15.1704C153.415 15.1125 153.503 14.455 153.518 11.3564L153.571 4.10889H154.065L161.534 12.6311C161.481 10.9408 161.411 8.29821 161.411 8.29821C161.34 5.20219 161.305 4.54722 160.67 4.48424L159.95 4.4263V4.16935L161.94 4.22729L163.932 4.16935V4.4263L163.209 4.48424Z" />
<path d="M121.849 15.9012C119.726 15.9238 117.612 15.4175 117.612 15.4175L117.4 11.4221L117.939 11.4196C118.594 13.1931 119.935 15.0094 121.733 14.9892C123.008 14.9741 124.189 14.0647 124.177 12.4928C124.157 10.3742 123.058 9.97113 121.091 8.16994C119.862 7.07412 117.98 5.88005 117.96 3.78413C117.932 0.763692 120.222 0.0230665 122.232 0.000394269C123.275 -0.00968227 125.152 0.176734 125.152 0.176734L125.182 3.6355L124.776 3.64054C124.764 2.19456 123.32 0.846823 121.932 0.864457C121.005 0.874534 119.849 1.22217 119.864 2.81679C119.879 4.49201 121.668 5.64577 123.419 7.11443C124.9 8.39667 126.028 9.39173 126.046 11.4473C126.069 14.0446 124.555 15.8684 121.849 15.9012Z" />
<path d="M67.203 15.4203H64.8652V15.2414L65.5782 15.1633C66.3666 15.0852 66.3666 14.6116 66.3666 9.87062C66.3666 5.12961 66.3666 4.65601 65.5782 4.57792L64.8652 4.5225V4.26807L67.1828 4.32601L69.5206 4.26807V4.50235L68.8052 4.57792C68.0217 4.65601 68.0217 5.13213 68.0217 9.87062C68.0217 14.6116 68.0217 15.0827 68.8052 15.1633L69.5206 15.2213V15.4782L67.203 15.4203Z" />
<path d="M90.68 15.4802L88.4657 15.4222L86.1279 15.4802V15.2434L86.8434 15.1653C87.6293 15.0872 87.6293 14.6161 87.6293 9.87509C87.6293 5.13408 87.6293 4.66049 86.8434 4.58239L86.1279 4.52445V4.27002L88.4657 4.32796L90.7858 4.27002V4.5043L90.0729 4.58239C89.2869 4.66049 89.2869 5.13408 89.2869 9.87509C89.2869 14.6161 89.2869 15.0872 90.0729 15.1653L90.7858 15.2232L90.68 15.4802Z" />
<path d="M85.477 6.42901H85.2478C85.2478 6.42901 85.2478 6.2703 85.2301 6.19221C85.1949 5.95793 85.1596 5.83701 85.0563 5.64556C84.8472 5.15181 83.5197 5.09135 82.512 5.09135H81.9326V9.87267C81.9528 14.6137 81.9326 15.0848 82.7186 15.1654L83.434 15.2233V15.4803L81.1139 15.4223L78.7787 15.4803V15.2435L79.4916 15.1654C80.275 15.0873 80.275 14.6137 80.275 9.87267V5.09135H78.3907C77.9549 5.09135 77.4133 5.21227 77.2924 5.30799C76.98 5.52464 76.8742 5.66319 76.7004 6.11664C76.6651 6.19473 76.6323 6.33328 76.6323 6.33328L76.4258 6.25267L76.7911 4.10889H76.9976C77.4889 4.24744 77.5216 4.32553 78.6905 4.32553H80.2272H81.9326H84.1671C84.6558 4.32553 84.9354 4.28523 85.3889 4.14919L85.5627 4.32553L85.477 6.42901Z" />
<path d="M95.7755 6.98123L94.3446 11.095H97.1686L95.7755 6.98123ZM99.6802 15.4203L97.7631 15.4783V15.2415L98.1309 15.1861C98.5138 15.1231 98.3551 14.9089 97.4155 11.7777H94.1381C93.1959 14.4933 93.0926 14.9266 93.929 15.1432L94.2414 15.2213V15.4783L92.3243 15.4203L90.6843 15.4783L90.5811 15.2415L90.8934 15.1861C91.5031 15.045 91.9741 14.6923 93.3874 11.0925L95.2868 5.71915L95.6017 4.32355L96.3851 4.02881L96.8915 5.72167L98.8967 11.095C100.31 14.8309 100.814 15.0273 101.287 15.1457L101.582 15.2238V15.4808L99.6802 15.4203Z" />
<path d="M51.6624 15.4203L51.2467 13.9315L51.3248 13.6695L51.7556 13.41C52.5416 13.3319 50.8789 14.7023 50.8411 9.87062H45.5207C45.5207 14.6116 45.5207 15.0827 46.3067 15.1633L47.0221 15.2213V15.4782L44.6995 15.4203L42.3643 15.4782V15.2414L43.0797 15.1633C43.8657 15.0852 43.8657 14.6116 43.8657 9.87062C43.8657 5.12961 43.8657 4.65601 43.0797 4.57792L42.3643 4.5225V4.26807L44.6844 4.32601L47.0221 4.26807V4.50235L46.3067 4.57792C45.5736 4.65601 45.5207 5.06915 45.5207 8.9864H50.8235C50.8235 5.06915 50.7706 4.65601 50.0527 4.57792L49.3221 4.5225V4.26807L51.6599 4.32601L53.9976 4.26807V4.50235L53.2822 4.57792C52.4987 4.65853 52.4987 5.13213 52.4987 9.87314C52.4987 14.6141 52.4987 15.0852 53.2645 15.1658L53.9976 15.2238V15.4807L51.6624 15.4203Z" />
<path d="M42.3672 15.4802V15.2232L43.1003 15.1653C43.8686 15.0872 43.8686 14.6161 43.8686 9.87509C43.8686 5.13408 43.8686 4.66049 43.0826 4.58239L42.3672 4.5043V4.27002L44.7049 4.32796L47.0427 4.27002V4.52445L46.3096 4.58239C45.5942 4.66049 45.5388 5.07362 45.5388 8.99088H50.8441C50.8441 5.07362 50.7887 4.66049 50.0581 4.58239L49.3427 4.5043V4.27002L51.6779 4.32796L53.998 4.27002V4.52445L53.2826 4.58239C52.4991 4.66049 52.4991 5.13408 52.4991 9.87509C52.4991 14.6161 52.4991 15.0872 53.2826 15.1653L53.998 15.2434V15.4802L51.6628 15.4222L49.3427 15.4802V15.2232L50.0581 15.1653C50.8441 15.0872 50.8441 14.6161 50.8441 9.87509H45.5262C45.4859 14.7043 43.9794 13.5026 44.7629 13.5833L45.1937 13.8427L45.2717 14.1022L44.7049 15.4222L42.3672 15.4802Z" />
<path d="M36.7606 15.8135C32.7502 15.8135 29.6113 12.9619 29.6113 8.241C29.6113 3.53777 32.7527 0.683594 36.7606 0.683594C38.5391 0.683594 41.3303 1.07658 41.3303 1.07658V5.04925H40.9827C40.6351 2.8828 39.3075 1.68621 36.7959 1.68621C33.6394 1.68621 31.7047 4.24565 31.7047 8.23848C31.7047 12.2313 33.6394 14.8084 36.7959 14.8084C39.3075 14.8084 40.6325 13.6068 40.9827 11.4428H41.3303V15.418C41.3329 15.4205 38.5391 15.8135 36.7606 15.8135Z" />
<path d="M59.0103 4.97286C58.6627 4.97286 58.4536 4.99301 58.3125 5.0308C58.1538 5.08874 58.174 7.33077 58.174 9.75166C58.174 9.90784 58.1891 9.96578 58.2974 10.0086C58.5745 10.1245 58.9751 10.1648 59.3076 10.1648C59.8467 10.1648 60.023 10.1069 60.2674 9.90784C60.6679 9.59547 61.139 8.90523 61.139 7.68597C61.1365 5.58249 59.7938 4.97286 59.0103 4.97286ZM65.356 15.4197L64.293 15.46C63.5423 15.4978 63.2097 15.3996 62.8646 15.2031C62.2701 14.8504 61.7638 14.1601 61.0156 13.0215C60.474 12.1952 59.8643 11.1901 59.688 10.976C59.62 10.8752 59.4436 10.8576 59.4436 10.8576H58.3428C58.2219 10.8576 58.2219 10.8777 58.2219 11.054V11.3866C58.2395 14.8302 58.3251 15.125 58.9726 15.1653L59.688 15.2232V15.4802L57.3679 15.4222L55.2694 15.4802V15.2434L55.7506 15.1653C56.534 15.0872 56.534 14.6161 56.534 9.87509C56.534 5.13408 56.534 4.66049 55.7506 4.58239L55.0352 4.52445V4.27002L57.3528 4.32796C57.8238 4.32796 58.9222 4.28765 59.3429 4.28765C60.1969 4.28765 61.2977 4.36827 62.0308 4.91996C62.3961 5.19202 62.9377 5.94272 62.9377 6.94534C62.9377 8.04872 62.3079 9.05134 60.9476 10.2706C62.1492 11.9206 63.0762 13.2432 63.8773 14.1652C64.6255 15.0292 65.1822 15.1275 65.3787 15.1678C65.5349 15.2081 65.9002 15.1905 65.9002 15.1905V15.4247H65.356V15.4197Z" />
<path d="M112.672 4.57742C112.042 4.63788 111.956 5.28782 111.939 8.3536L111.886 15.5357H111.38L104.001 7.84222C104.001 8.96323 104.107 11.3816 104.107 11.3816C104.195 14.4323 104.21 15.0998 104.837 15.1603L105.57 15.2182V15.4752L103.58 15.4173L101.61 15.4752V15.2182L102.326 15.1603C102.971 15.1024 103.056 14.4524 103.074 11.3816L103.132 4.20459H103.621L111.017 12.6462C110.961 10.976 110.893 8.35612 110.893 8.35612C110.825 5.28782 110.79 4.6404 110.16 4.57994L109.447 4.522V4.26757L111.417 4.32551L113.387 4.26757V4.522L112.672 4.57742Z" />
<path d="M76.4507 12.4523C76.4507 14.3618 75.1786 15.5609 73.2943 15.5609C72.2312 15.5609 70.7852 15.3644 70.7852 15.3644L70.5938 12.354H70.8885C71.3419 13.6514 72.0926 14.9311 73.4001 14.9311C74.3246 14.9311 75.0929 14.2811 75.0929 13.2584C75.0929 11.7041 73.9417 11.1499 72.8937 10.1498C72.0574 9.34113 71.0119 8.33851 71.0119 6.82451C71.0119 5.09135 71.9692 4.10889 73.9921 4.10889C74.7075 4.10889 75.7529 4.26759 75.7529 4.26759V6.70611H75.4733C75.4733 5.66319 74.7402 4.73867 73.783 4.73867C73.1381 4.73867 72.3521 4.97547 72.3521 6.13679C72.3521 7.35605 73.521 8.08408 74.7251 9.16479C75.7529 10.1095 76.4331 10.976 76.4331 12.4523H76.4507V12.4523Z" />
</svg>
