<?xml version="1.0" encoding="UTF-8"?><svg id="Layer_3" xmlns="http://www.w3.org/2000/svg" xmlns:xlink="http://www.w3.org/1999/xlink" viewBox="0 0 1000 200"><defs><style>.cls-1{clip-path:url(#clippath);}.cls-2{fill:none;}.cls-2,.cls-3,.cls-4,.cls-5,.cls-6{stroke-width:0px;}.cls-3{fill:#4b9cb5;}.cls-4{fill:#cbe7ef;}.cls-5{fill:#fff;}.cls-6{fill:#005266;}</style><clipPath id="clippath"><rect class="cls-2" y="0" width="1000" height="200"/></clipPath></defs><g class="cls-1"><rect class="cls-4" y="0" width="1000" height="200"/><path class="cls-6" d="M644.34,59.75c17.02,0,33.56,3.59,47.73,10.21-.95-23.71-21.95-42.67-47.73-42.67s-46.78,18.96-47.73,42.67c14.17-6.62,30.71-10.21,47.73-10.21Z"/><rect class="cls-6" x="638.25" y="18.23" width="12.19" height="26.52" rx="5.85" ry="5.85"/><path class="cls-6" d="M644.34,66.54c-20.43,0-39.78,5.31-54.97,15.01v40.51c4.07-2.6,8.44-4.87,13.04-6.82v-24.58c0-4.27,3.46-7.73,7.73-7.73s7.73,3.46,7.73,7.73v19.49c5.65-1.37,11.52-2.29,17.52-2.75v-22.6c0-4.95,4.01-8.96,8.96-8.96s8.96,4.01,8.96,8.96v22.6c6.01.46,11.87,1.39,17.52,2.75v-19.49c0-4.27,3.46-7.73,7.73-7.73s7.73,3.46,7.73,7.73v24.58c4.6,1.95,8.97,4.22,13.04,6.82v-40.51c-15.19-9.7-34.54-15.01-54.97-15.01Z"/><path class="cls-6" d="M711.13,218h-133.57l7.46-85.48h118.66l7.46,85.48ZM582.94,213.06h122.8l-6.6-75.61h-109.61l-6.6,75.61Z"/><path class="cls-6" d="M701.41,134.98h-114.13l-7.03,80.54,124.46-42.7-3.3-37.84ZM658.7,172.84h-28.72v-12.14c0-7.93,6.43-14.36,14.36-14.36s14.36,6.43,14.36,14.36v12.14Z"/><path class="cls-6" d="M644.34,132.75c33.33,0,61.72,14.97,72.56,35.95,1.19,2.3,4.68,1.49,4.7-1.09,0-.07,0-.13,0-.2,0-30.26-34.59-54.79-77.25-54.79s-77.25,24.53-77.25,54.79c0,.07,0,.13,0,.2.01,2.59,3.51,3.39,4.7,1.09,10.83-20.98,39.23-35.95,72.56-35.95Z"/><polygon class="cls-3" points="-86.31 313.04 602.26 104.11 602.26 95.17 -86.31 -112.04 -86.31 313.04"/><polygon class="cls-3" points="1374.87 313.04 686.3 104.11 686.3 95.17 1374.87 -112.04 1374.87 313.04"/></g><path class="cls-5" d="M38.72,70.59h-7.15v-34.18h14.35c1.88,0,3.57.25,5.07.76,1.5.51,2.77,1.23,3.81,2.18,1.04.95,1.84,2.1,2.4,3.45.56,1.35.84,2.88.84,4.58,0,1.09-.14,2.14-.41,3.14-.28,1-.68,1.93-1.21,2.77s-1.18,1.59-1.95,2.24c-.77.65-1.65,1.17-2.63,1.56l7.2,13.5h-8.1l-6.37-12.39h-5.85v12.39ZM38.72,52.71h6.28c1.82,0,3.22-.46,4.22-1.37.99-.92,1.49-2.2,1.49-3.86,0-.8-.13-1.53-.4-2.19-.27-.65-.65-1.21-1.15-1.67-.5-.46-1.1-.81-1.82-1.05-.72-.24-1.52-.37-2.4-.37h-6.21v10.52Z"/><path class="cls-5" d="M91.53,70.59h-22.64v-34.18h22.64v6.11h-15.49v7.98h14.61v5.66h-14.61v8.31h15.49v6.11Z"/><path class="cls-5" d="M102.7,70.59v-34.18h14.95c1.66,0,3.14.2,4.45.59,1.31.39,2.42.96,3.33,1.69.91.73,1.6,1.63,2.08,2.68.48,1.05.72,2.24.72,3.56,0,.9-.16,1.76-.47,2.59-.32.83-.75,1.57-1.3,2.22-.55.65-1.21,1.19-1.97,1.63-.76.44-1.57.73-2.44.85v.43c1.14.08,2.18.34,3.14.79.96.45,1.78,1.03,2.48,1.75.69.72,1.24,1.56,1.62,2.51s.58,1.99.58,3.09c0,1.5-.27,2.85-.82,4.06-.55,1.21-1.33,2.23-2.36,3.08-1.03.85-2.27,1.5-3.73,1.95-1.46.46-3.1.69-4.91.69h-15.35ZM109.85,50.58h5.38c1.94,0,3.42-.37,4.44-1.12,1.02-.75,1.53-1.82,1.53-3.21s-.47-2.44-1.4-3.21c-.93-.77-2.26-1.15-3.98-1.15h-5.97v8.69ZM116.22,65.12c2.07,0,3.64-.42,4.72-1.25s1.62-2.06,1.62-3.67-.56-2.77-1.67-3.58c-1.11-.81-2.73-1.21-4.84-1.21h-6.21v9.71h6.37Z"/><path class="cls-5" d="M145.98,58.06c0,1.07.16,2.04.47,2.91.32.87.78,1.61,1.39,2.23.61.62,1.36,1.09,2.25,1.42.89.33,1.91.5,3.04.5s2.17-.17,3.07-.5c.89-.33,1.64-.8,2.25-1.42s1.07-1.36,1.39-2.23c.32-.87.47-1.84.47-2.91v-21.65h7.15v22.38c0,1.89-.34,3.62-1.01,5.17-.67,1.56-1.63,2.89-2.88,4-1.25,1.11-2.75,1.97-4.51,2.58-1.76.61-3.74.91-5.93.91s-4.15-.3-5.92-.91c-1.77-.61-3.27-1.47-4.51-2.58-1.24-1.11-2.19-2.45-2.87-4-.67-1.56-1.01-3.28-1.01-5.17v-22.38h7.15v21.65Z"/><path class="cls-5" d="M178.95,70.59v-34.18h7.15v34.18h-7.15Z"/><path class="cls-5" d="M220.39,70.59h-22.36v-34.18h7.15v27.95h15.21v6.23Z"/><path class="cls-5" d="M243.97,36.39c2.54,0,4.81.38,6.8,1.12,1.99.75,3.67,1.85,5.03,3.29,1.37,1.44,2.41,3.21,3.13,5.31.72,2.09,1.08,4.47,1.08,7.14s-.36,5.25-1.07,7.4-1.75,3.97-3.11,5.44c-1.37,1.47-3.04,2.59-5.03,3.35-1.99.77-4.26,1.15-6.82,1.15h-13.45v-34.2h13.45ZM237.67,64.48h5.16c3.17,0,5.61-.94,7.32-2.83,1.71-1.89,2.56-4.65,2.56-8.28,0-1.72-.23-3.26-.68-4.61-.45-1.35-1.1-2.49-1.94-3.42-.84-.93-1.88-1.64-3.1-2.12-1.22-.48-2.61-.72-4.16-.72h-5.16v21.98Z"/><path class="cls-5" d="M269.91,70.59v-34.18h7.15v34.18h-7.15Z"/><path class="cls-5" d="M288.51,70.59v-34.18h5.97l15.73,21.29h.43v-21.29h6.85v34.18h-5.92l-15.77-21.39h-.43v21.39h-6.84Z"/><path class="cls-5" d="M357.17,62.82c-.7,1.83-1.71,3.39-3.02,4.67-1.31,1.28-2.9,2.26-4.77,2.95-1.87.69-3.98,1.03-6.31,1.03-2.54,0-4.82-.41-6.84-1.24-2.02-.83-3.74-2.02-5.15-3.56s-2.5-3.43-3.26-5.66c-.76-2.23-1.14-4.74-1.14-7.53s.38-5.23,1.14-7.45c.76-2.22,1.84-4.1,3.24-5.65,1.4-1.55,3.11-2.74,5.1-3.58,2-.84,4.24-1.26,6.74-1.26,2.02,0,3.89.28,5.61.84s3.24,1.35,4.55,2.38c1.31,1.03,2.38,2.27,3.22,3.72.84,1.45,1.38,3.06,1.63,4.83h-7.11c-.54-1.74-1.49-3.08-2.85-4.04-1.37-.96-3.05-1.43-5.06-1.43-1.37,0-2.61.27-3.72.79-1.11.53-2.04,1.29-2.81,2.29-.77.99-1.35,2.21-1.76,3.64-.41,1.43-.62,3.04-.62,4.84s.21,3.47.64,4.93c.43,1.45,1.04,2.69,1.84,3.71.8,1.02,1.76,1.8,2.9,2.33,1.14.54,2.41.8,3.81.8,1.17,0,2.24-.17,3.22-.5.98-.33,1.82-.8,2.52-1.4s1.26-1.33,1.67-2.18.63-1.79.66-2.82l.02-.62h-7.41v-5.38h14.35v4.36c0,2.29-.35,4.35-1.05,6.18Z"/><path class="cls-5" d="M48.02,161.43v-56.36h-20.28v-13h55.32v13h-20.17v56.36h-14.87Z"/><path class="cls-5" d="M135.88,161.43l-13.62-24.85h-10.81v24.85h-14.77v-69.36h32.44c14.45,0,23.29,9.46,23.29,22.36s-7.7,18.82-15.18,20.59l15.6,26.41h-16.95ZM126.94,104.76h-15.49v19.13h15.49c5.93,0,10.4-3.74,10.4-9.57s-4.47-9.57-10.4-9.57Z"/><path class="cls-5" d="M166.66,92.07h14.97v41.18c0,9.67,5.3,16.33,16.12,16.33s15.91-6.66,15.91-16.33v-41.18h14.97v41.6c0,17.26-9.88,29.01-30.88,29.01s-31.09-11.86-31.09-28.91v-41.7Z"/><path class="cls-5" d="M248.81,140.43c4.89,5.09,12.48,9.36,22.05,9.36,8.11,0,12.06-3.85,12.06-7.8,0-5.2-6.03-6.97-14.04-8.84-11.33-2.6-25.89-5.72-25.89-21.21,0-11.54,9.98-20.9,26.31-20.9,11.02,0,20.17,3.33,27.04,9.67l-8.21,10.81c-5.61-5.2-13.1-7.59-19.86-7.59s-10.19,2.91-10.19,7.07c0,4.68,5.82,6.14,13.83,8.01,11.44,2.6,26,6.03,26,21.42,0,12.69-9.05,22.25-27.76,22.25-13.31,0-22.88-4.47-29.43-11.02l8.11-11.23Z"/><path class="cls-5" d="M327,161.43v-56.36h-20.28v-13h55.32v13h-20.17v56.36h-14.87Z"/></svg>